<svg xmlns="http://www.w3.org/2000/svg" version="1.0" width="130.000000pt" height="128.000000pt" viewBox="0 0 130.000000 128.000000" preserveAspectRatio="xMidYMid meet">

<g transform="translate(0.000000,128.000000) scale(0.100000,-0.100000)" fill="#8220ff" stroke="none">
<path d="M537 1231 c-122 -64 -186 -108 -207 -143 -17 -29 -20 -51 -20 -168 -1 -93 -5 -142 -14 -159 -7 -13 -67 -56 -132 -95 -156 -93 -164 -107 -164 -286 0 -200 7 -211 190 -315 147 -83 166 -82 324 9 91 53 123 67 144 63 15 -3 76 -34 137 -69 149 -86 170 -86 321 1 60 35 119 73 131 84 44 39 55 93 52 239 -5 176 -12 188 -166 276 -61 34 -117 70 -124 79 -10 11 -15 61 -19 168 -5 145 -6 153 -31 186 -16 21 -71 59 -139 98 -149 85 -177 88 -283 32z m248 -102 c133 -77 135 -81 135 -254 0 -173 6 -183 167 -274 131 -74 133 -78 133 -222 0 -69 -5 -129 -12 -144 -11 -25 -194 -139 -244 -151 -17 -4 -56 12 -146 63 -165 92 -180 92 -339 0 -64 -37 -124 -67 -134 -67 -22 0 -213 108 -242 137 -22 21 -23 30 -23 155 0 111 3 137 18 154 9 12 65 50 125 84 150 87 151 89 157 277 4 135 7 155 25 172 39 38 209 130 242 131 20 0 67 -21 138 -61z" fill="#8220ff"/>
<path d="M581 1032 c-74 -37 -101 -127 -62 -202 l21 -40 -30 -54 c-50 -88 -40 -127 45 -178 54 -32 55 -34 55 -78 0 -58 -12 -70 -70 -70 -43 0 -47 2 -63 35 -23 49 -70 75 -133 75 -68 0 -112 -30 -138 -92 -17 -41 -18 -53 -7 -88 17 -57 57 -97 111 -111 40 -11 51 -9 93 9 30 14 54 33 67 55 20 33 23 35 91 39 59 5 75 10 97 32 22 22 27 37 30 96 4 71 4 71 43 90 54 28 61 26 88 -24 23 -41 24 -46 8 -69 -82 -125 49 -279 187 -218 58 25 86 69 86 134 0 87 -59 148 -144 149 -41 1 -46 4 -66 42 -39 70 -58 86 -107 86 -29 0 -57 -8 -84 -26 -46 -29 -68 -27 -114 9 l-29 24 24 47 c22 41 29 46 60 46 19 0 54 9 78 20 78 35 105 146 53 218 -41 58 -125 78 -190 44z m119 -82 c26 -26 25 -68 -2 -97 -43 -46 -118 -16 -118 47 0 38 32 70 70 70 17 0 39 -9 50 -20z m-322 -516 c35 -24 46 -51 32 -84 -25 -60 -101 -64 -128 -7 -17 35 -2 79 31 95 30 15 39 14 65 -4z m627 -14 c42 -47 -14 -135 -72 -114 -62 21 -69 104 -11 128 36 15 60 11 83 -14z" fill="#8220ff"/>
</g>
</svg>